
<?xml version="1.0" standalone="no"?>
<!DOCTYPE svg PUBLIC "-//W3C//DTD SVG 20010904//EN"
 "http://www.w3.org/TR/2001/REC-SVG-20010904/DTD/svg10.dtd">
<svg version="1.0" xmlns="http://www.w3.org/2000/svg"
 width="1024.000000pt" height="1024.000000pt" viewBox="0 0 1024.000000 1024.000000"
 preserveAspectRatio="xMidYMid meet">

<g transform="translate(0.000000,1024.000000) scale(0.100000,-0.100000)"
fill="#7A4FFF" stroke="none">
  <path d="M4800 10233 c-891 -58 -1746 -337 -2480 -808 -1455 -934 -2320 -2502
  -2320 -4213 0 -1711 865 -3279 2320 -4213 734 -471 1589 -750 2480 -808 228 -15
  742 -15 970 0 891 58 1746 337 2480 808 1455 934 2320 2502 2320 4213 0 1711
  -865 3279 -2320 4213 -734 471 -1589 750 -2480 808 -228 15 -742 15 -970 0z
  M5200 8970 c694 -36 1363 -214 1970 -527 609 -314 1134 -752 1546 -1293 561
  -736 900 -1625 980 -2573 17 -205 17 -695 0 -900 -80 -948 -419 -1837 -980
  -2573 -412 -541 -937 -979 -1546 -1293 -607 -313 -1276 -491 -1970 -527 -205
  -11 -595 -11 -800 0 -694 36 -1363 214 -1970 527 -609 314 -1134 752 -1546 1293
  -561 736 -900 1625 -980 2573 -17 205 -17 695 0 900 80 948 419 1837 980 2573
  412 541 937 979 1546 1293 607 313 1276 491 1970 527 129 6 334 11 455 10 121 0
  326 -4 455 -10z"/>
  <path d="M5340 7574 c-19 -2 -84 -9 -145 -14 -522 -49 -1007 -209 -1415 -467
  -591 -374 -974 -913 -1135 -1598 -53 -226 -69 -373 -69 -625 0 -252 16 -399 69
  -625 161 -685 544 -1224 1135 -1598 408 -258 893 -418 1415 -467 61 -5 126 -12
  145 -14 19 -3 94 -1 165 5 602 44 1105 226 1545 558 368 278 660 663 829 1091
  136 346 201 691 201 1070 0 379 -65 724 -201 1070 -169 428 -461 813 -829 1091
  -440 332 -943 514 -1545 558 -71 6 -146 8 -165 5z m440 -853 c431 -98 769 -337
  973 -691 128 -221 197 -498 197 -790 0 -292 -69 -569 -197 -790 -204 -354 -542
  -593 -973 -691 -99 -23 -133 -25 -300 -25 -167 0 -201 2 -300 25 -431 98 -769
  337 -973 691 -128 221 -197 498 -197 790 0 292 69 569 197 790 204 354 542 593
  973 691 99 23 133 25 300 25 167 0 201 -2 300 -25z"/>
  <path d="M5048 5490 c-155 -47 -240 -207 -193 -365 70 -238 396 -268 508 -47 24
  47 24 193 0 240 -52 100 -211 151 -315 100 l-38 -18 0 -135 0 -135 50 0 50 0 0
  110 0 110 35 0 c57 0 105 -53 105 -115 0 -50 -35 -105 -75 -117 -38 -12 -95 -10
  -131 4 -56 23 -84 62 -84 117 0 78 46 126 124 126 l41 0 0 50 0 50 -29 -1 c-16
  -1 -38 -7 -48 -14z"/>
</g>
</svg>
